# xmcd
#
# Track frame offsets:
#	150
#	18622
#	34657
#	49910
#	63880
#	81411
#	97318
#	114005
#	127857
#	144372
#	159705
#	177062
#
# Disc length: 2537 seconds
#
# Revision: 0
# Processed by: cddbd v1.5PL3 Copyright (c) Steve Scherf et al.
# Submitted via: dBpowerAMP V4.0
#
DISCID=9909e70c
DTITLE=Tanya Tucker - Tanya Tucker - Disc 3
DYEAR=1900
DGENRE=Country
TTITLE0=The Thunder Rolls
TTITLE1=Oh What It Did To Me
TTITLE2=Your Love Amazes Me
TTITLE3=If Your Heart Ain't Busy Tonight
TTITLE4=Some Kind Of Trouble
TTITLE5=Down To My Last Teardrop
TTITLE6=He Was Just Leaving
TTITLE7=Trail Of Tears
TTITLE8=Right About Now
TTITLE9=Bidding America Goodbye
TTITLE10=Time And Distance
TTITLE11=(Without You) What Do I Do With Me
EXTD=
EXTT0=
EXTT1=
EXTT2=
EXTT3=
EXTT4=
EXTT5=
EXTT6=
EXTT7=
EXTT8=
EXTT9=
EXTT10=
EXTT11=
PLAYORDER=
